<?xml version="1.0" encoding="UTF-8" standalone="no"?>
<!DOCTYPE svg PUBLIC "-//W3C//DTD SVG 1.0//EN" "http://www.w3.org/TR/2001/PR-SVG-20010719/DTD/svg10.dtd">
<svg width="29cm" height="18cm" viewBox="11 14 572 348" xmlns="http://www.w3.org/2000/svg" xmlns:xlink="http://www.w3.org/1999/xlink">
  <g>
    <polyline style="fill: none; fill-opacity:0; stroke-width: 2; stroke: #000000" points="135.056,70.082 148.031,70.082 148.031,116.018 128.947,116.018 128.947,172.071 144.352,172.071 "/>
    <polygon style="fill: #000000" points="151.852,172.071 141.852,177.071 144.352,172.071 141.852,167.071 "/>
    <polygon style="fill: none; fill-opacity:0; stroke-width: 2; stroke: #000000" points="151.852,172.071 141.852,177.071 144.352,172.071 141.852,167.071 "/>
  </g>
  <g>
    <rect style="fill: #00ff00" x="154.088" y="153.071" width="61.95" height="38"/>
    <rect style="fill: none; fill-opacity:0; stroke-width: 2; stroke: #000000" x="154.088" y="153.071" width="61.95" height="38"/>
    <text font-size="12.8" style="fill: #000000;text-anchor:middle;font-family:sans-serif;font-style:normal;font-weight:700" x="185.063" y="176.871">
      <tspan x="185.063" y="176.871">Ready</tspan>
    </text>
  </g>
  <g>
    <rect style="fill: #ffff00" x="350.22" y="202.17" width="96.05" height="38"/>
    <rect style="fill: none; fill-opacity:0; stroke-width: 2; stroke: #000000" x="350.22" y="202.17" width="96.05" height="38"/>
    <text font-size="12.8" style="fill: #000000;text-anchor:middle;font-family:sans-serif;font-style:normal;font-weight:700" x="398.245" y="225.97">
      <tspan x="398.245" y="225.97">In progress</tspan>
    </text>
  </g>
  <g>
    <rect style="fill: #9ccfff" x="499.617" y="202.419" width="83.05" height="38"/>
    <rect style="fill: none; fill-opacity:0; stroke-width: 2; stroke: #000000" x="499.617" y="202.419" width="83.05" height="38"/>
    <text font-size="12.8" style="fill: #000000;text-anchor:middle;font-family:sans-serif;font-style:normal;font-weight:700" x="541.142" y="226.219">
      <tspan x="541.142" y="226.219">Complete</tspan>
    </text>
  </g>
  <g>
    <polyline style="fill: none; fill-opacity:0; stroke-width: 2; stroke: #000000" points="446.27,221.17 472.943,221.17 472.943,221.419 489.881,221.419 "/>
    <polygon style="fill: #000000" points="497.381,221.419 487.381,226.419 489.881,221.419 487.381,216.419 "/>
    <polygon style="fill: none; fill-opacity:0; stroke-width: 2; stroke: #000000" points="497.381,221.419 487.381,226.419 489.881,221.419 487.381,216.419 "/>
  </g>
  <g>
    <polyline style="fill: none; fill-opacity:0; stroke-width: 2; stroke: #009c00" points="398.245,240.17 398.245,292.082 185.063,292.082 185.063,200.807 "/>
    <polygon style="fill: #009c00" points="185.063,193.307 190.063,203.307 185.063,200.807 180.063,203.307 "/>
    <polygon style="fill: none; fill-opacity:0; stroke-width: 2; stroke: #009c00" points="185.063,193.307 190.063,203.307 185.063,200.807 180.063,203.307 "/>
  </g>
  <g>
    <polyline style="fill: none; fill-opacity:0; stroke-width: 2; stroke: #ff0000" points="561.904,240.419 561.904,360.858 73.8808,360.858 73.8808,106.818 "/>
    <polygon style="fill: #ff0000" points="73.8808,99.318 78.8808,109.318 73.8808,106.818 68.8808,109.318 "/>
    <polygon style="fill: none; fill-opacity:0; stroke-width: 2; stroke: #ff0000" points="73.8808,99.318 78.8808,109.318 73.8808,106.818 68.8808,109.318 "/>
  </g>
  <g>
    <polyline style="fill: none; fill-opacity:0; stroke-width: 2; stroke: #ff0000" points="422.257,240.17 422.257,347.103 73.8808,347.103 73.8808,106.818 "/>
    <polygon style="fill: #ff0000" points="73.8808,99.318 78.8808,109.318 73.8808,106.818 68.8808,109.318 "/>
    <polygon style="fill: none; fill-opacity:0; stroke-width: 2; stroke: #ff0000" points="73.8808,99.318 78.8808,109.318 73.8808,106.818 68.8808,109.318 "/>
  </g>
  <g>
    <polyline style="fill: none; fill-opacity:0; stroke-width: 2; stroke: #ff0000" points="169.575,191.071 169.575,332.431 73.8808,332.431 73.8808,106.818 "/>
    <polygon style="fill: #ff0000" points="73.8808,99.318 78.8808,109.318 73.8808,106.818 68.8808,109.318 "/>
    <polygon style="fill: none; fill-opacity:0; stroke-width: 2; stroke: #ff0000" points="73.8808,99.318 78.8808,109.318 73.8808,106.818 68.8808,109.318 "/>
  </g>
  <g>
    <polyline style="fill: none; fill-opacity:0; stroke-width: 2; stroke: #009c00" points="541.142,240.419 541.142,305.837 185.063,305.837 185.063,200.807 "/>
    <polygon style="fill: #009c00" points="185.063,193.307 190.063,203.307 185.063,200.807 180.063,203.307 "/>
    <polygon style="fill: none; fill-opacity:0; stroke-width: 2; stroke: #009c00" points="185.063,193.307 190.063,203.307 185.063,200.807 180.063,203.307 "/>
  </g>
  <g>
    <polygon style="fill: #ffffff" points="235.662,210.311 309.711,210.311 301.878,231.833 227.828,231.833 "/>
    <polygon style="fill: none; fill-opacity:0; stroke-width: 1.5; stroke: #000000" points="235.662,210.311 309.711,210.311 301.878,231.833 227.828,231.833 "/>
    <text font-size="11.8533" style="fill: #000000;text-anchor:middle;font-family:sans-serif;font-style:oblique;font-weight:normal" x="268.77" y="225.514">
      <tspan x="268.77" y="225.514">initial value</tspan>
    </text>
  </g>
  <g>
    <polyline style="fill: none; fill-opacity:0; stroke-width: 2; stroke: #000000" points="520.379,240.419 520.379,271.908 264.853,271.908 264.853,241.57 "/>
    <polygon style="fill: #000000" points="264.853,234.07 269.853,244.07 264.853,241.57 259.853,244.07 "/>
    <polygon style="fill: none; fill-opacity:0; stroke-width: 2; stroke: #000000" points="264.853,234.07 269.853,244.07 264.853,241.57 259.853,244.07 "/>
  </g>
  <g>
    <polyline style="fill: none; fill-opacity:0; stroke-width: 2; stroke: #000000" points="374.232,240.17 374.232,261.17 264.853,261.17 264.853,241.57 "/>
    <polygon style="fill: #000000" points="264.853,234.07 269.853,244.07 264.853,241.57 259.853,244.07 "/>
    <polygon style="fill: none; fill-opacity:0; stroke-width: 2; stroke: #000000" points="264.853,234.07 269.853,244.07 264.853,241.57 259.853,244.07 "/>
  </g>
  <g>
    <polyline style="fill: none; fill-opacity:0; stroke-width: 2; stroke: #000000" points="216.038,172.071 272.686,172.071 272.686,200.575 "/>
    <polygon style="fill: #000000" points="272.686,208.075 267.686,198.075 272.686,200.575 277.686,198.075 "/>
    <polygon style="fill: none; fill-opacity:0; stroke-width: 2; stroke: #000000" points="272.686,208.075 267.686,198.075 272.686,200.575 277.686,198.075 "/>
  </g>
  <g>
    <polyline style="fill: none; fill-opacity:0; stroke-width: 2; stroke: #000000" points="306.278,221.072 328.249,221.072 328.249,221.17 340.484,221.17 "/>
    <polygon style="fill: #000000" points="347.984,221.17 337.984,226.17 340.484,221.17 337.984,216.17 "/>
    <polygon style="fill: none; fill-opacity:0; stroke-width: 2; stroke: #000000" points="347.984,221.17 337.984,226.17 340.484,221.17 337.984,216.17 "/>
  </g>
  <g>
    <path style="fill: none; fill-opacity:0; stroke-width: 1; stroke-dasharray: 8; stroke: #000000" d="M 398.245 202.17 C 398.835,171.038 302.55,106.848 379.354,92.8089"/>
    <polygon style="fill: #000000" points="386.731,91.4603 377.793,98.1769 379.354,92.8089 375.995,88.3399 "/>
    <polygon style="fill: none; fill-opacity:0; stroke-width: 1; stroke: #000000" points="386.731,91.4603 377.793,98.1769 379.354,92.8089 375.995,88.3399 "/>
  </g>
  <g>
    <g>
      <path style="fill: #ffff00" d="M 415.603 15.1481 L 554.463,15.1481 C 575.292,45.5926 582.235,60.8148 582.235,91.2592 C 582.235,121.704 575.292,136.926 554.463,167.37 L 415.603,167.37 L 387.831,91.2592 L 415.603,15.1481z"/>
      <path style="fill: none; fill-opacity:0; stroke-width: 1; stroke-dasharray: 10; stroke: #000000" d="M 415.603 15.1481 L 554.463,15.1481 C 575.292,45.5926 582.235,60.8148 582.235,91.2592 C 582.235,121.704 575.292,136.926 554.463,167.37 L 415.603,167.37 L 387.831,91.2592 L 415.603,15.1481"/>
      <text font-size="13.5467" style="fill: #000000;text-anchor:middle;font-family:sans-serif;font-style:normal;font-weight:700" x="485.033" y="96.3392">
        <tspan x="485.033" y="96.3392">In progress</tspan>
      </text>
    </g>
    <g>
      <rect style="fill: #ffd380" x="449.94" y="29.8812" width="68.5" height="38"/>
      <rect style="fill: none; fill-opacity:0; stroke-width: 2; stroke: #000000" x="449.94" y="29.8812" width="68.5" height="38"/>
      <text font-size="11.2889" style="fill: #000000;text-anchor:middle;font-family:sans-serif;font-style:normal;font-weight:700" x="484.19" y="53.1257">
        <tspan x="484.19" y="53.1257">Paused</tspan>
      </text>
    </g>
    <g>
      <rect style="fill: #00b6d8" x="452.898" y="110.686" width="49.25" height="38"/>
      <rect style="fill: none; fill-opacity:0; stroke-width: 2; stroke: #000000" x="452.898" y="110.686" width="49.25" height="38"/>
      <text font-size="11.2889" style="fill: #000000;text-anchor:middle;font-family:sans-serif;font-style:normal;font-weight:700" x="477.523" y="133.931">
        <tspan x="477.523" y="133.931">Play</tspan>
      </text>
    </g>
    <g>
      <polyline style="fill: none; fill-opacity:0; stroke-width: 2; stroke: #000000" points="502.148,129.686 539.44,129.686 539.44,48.8812 528.176,48.8812 "/>
      <polygon style="fill: #000000" points="520.676,48.8812 530.676,43.8812 528.176,48.8812 530.676,53.8812 "/>
      <polygon style="fill: none; fill-opacity:0; stroke-width: 2; stroke: #000000" points="520.676,48.8812 530.676,43.8812 528.176,48.8812 530.676,53.8812 "/>
    </g>
    <g>
      <polyline style="fill: none; fill-opacity:0; stroke-width: 2; stroke: #000000" points="449.94,48.8812 428.94,48.8812 428.94,129.686 443.162,129.686 "/>
      <polygon style="fill: #000000" points="450.662,129.686 440.662,134.686 443.162,129.686 440.662,124.686 "/>
      <polygon style="fill: none; fill-opacity:0; stroke-width: 2; stroke: #000000" points="450.662,129.686 440.662,134.686 443.162,129.686 440.662,124.686 "/>
    </g>
  </g>
  <g>
    <rect style="fill: #ffc0cb" x="12.7058" y="43.082" width="122.35" height="54"/>
    <rect style="fill: none; fill-opacity:0; stroke-width: 2; stroke: #000000" x="12.7058" y="43.082" width="122.35" height="54"/>
    <text font-size="12.8" style="fill: #000000;text-anchor:middle;font-family:sans-serif;font-style:normal;font-weight:700" x="73.8808" y="66.882">
      <tspan x="73.8808" y="66.882">Unconvigured /</tspan>
      <tspan x="73.8808" y="82.882">reconfigure</tspan>
    </text>
  </g>
  <text font-size="12.7998" style="fill: #000000;text-anchor:start;font-family:sans-serif;font-style:normal;font-weight:normal" x="73.8808" y="70.082">
    <tspan x="73.8808" y="70.082"></tspan>
  </text>
</svg>
